<svg width="42" height="63" viewBox="0 0 42 63" version="1.1" xmlns="http://www.w3.org/2000/svg" xmlns:xlink="http://www.w3.org/1999/xlink">
<title>2 &#209;&#136;&#208;&#176;&#208;&#179;</title>
<desc>Created using Figma</desc>
<g id="Canvas" transform="translate(-5062 8)">
<g id="2 &#209;&#136;&#208;&#176;&#208;&#179;">
<g id="H1">
<use xlink:href="#path0_fill" transform="translate(5059 -17)" fill="#DEECB6"/>
</g>
<g id="&#208;&#168;&#208;&#176;&#208;&#179;">
<use xlink:href="#path1_fill" transform="translate(5063 20)" fill="#8894A2"/>
</g>
</g>
</g>
<defs>
<path id="path0_fill" d="M 8.91 23.13C 8.91 23.13 14.85 20.79 21.15 20.79C 26.91 20.79 30.51 22.95 30.51 27.54C 30.51 32.4 28.17 35.01 20.43 40.32C 12.24 45.81 3.15 51.75 3.15 65.34C 3.15 68.94 3.87 72 3.87 72L 43.11 72C 43.92 70.29 44.28 68.13 44.28 66.06C 44.28 63.9 43.92 61.83 43.11 60.12L 17.64 60.12C 17.55 59.67 17.46 59.13 17.46 58.68C 17.82 53.91 23.85 51.84 28.62 48.96C 39.15 42.66 44.91 38.07 44.91 27.18C 44.91 15.12 36.18 9.54 23.49 9.54C 12.6 9.54 4.95 13.32 4.95 13.32C 4.68 17.19 6.21 21.06 8.91 23.13Z"/>
<path id="path1_fill" d="M 1.26285 12L 13.0829 12L 13.0829 1.335C 13.0829 1.335 12.7679 1.2 12.1379 1.2C 11.4329 1.2 11.1629 1.335 11.1629 1.335L 11.1629 10.35L 8.13285 10.35L 8.13285 1.335C 8.13285 1.335 7.81785 1.2 7.18785 1.2C 6.48285 1.2 6.21285 1.335 6.21285 1.335L 6.21285 10.35L 3.18285 10.35L 3.18285 1.335C 3.18285 1.335 2.83785 1.2 2.22285 1.2C 1.53285 1.2 1.26285 1.335 1.26285 1.335L 1.26285 12ZM 18.1258 1.335L 14.5408 11.865C 14.5408 11.865 14.8558 12 15.4258 12C 16.0258 12 16.3558 11.865 16.3558 11.865L 17.1658 9.465L 21.2608 9.465L 22.0708 11.865C 22.0708 11.865 22.3558 12 23.0008 12C 23.7058 12 24.0508 11.865 24.0508 11.865L 20.4658 1.335C 20.4658 1.335 20.0308 1.2 19.2958 1.2C 18.6208 1.2 18.1258 1.335 18.1258 1.335ZM 19.2508 3.21C 19.2508 3.21 19.4008 3.945 19.7158 4.875L 20.7358 7.92L 17.6908 7.92L 18.7408 4.875C 19.0408 3.975 19.1908 3.21 19.1908 3.21L 19.2508 3.21ZM 25.506 1.2L 25.506 11.865C 25.506 11.865 25.821 12 26.451 12C 27.096 12 27.426 11.865 27.426 11.865L 27.426 2.85L 31.506 2.85C 31.506 2.85 31.656 2.475 31.656 2.01C 31.656 1.485 31.506 1.2 31.506 1.2L 25.506 1.2Z"/>
</defs>
</svg>
