<svg xmlns="http://www.w3.org/2000/svg" width="57" height="57" viewBox="0 0 57 57"><g fill="none" fill-rule="evenodd"><path fill="#F00" d="M0 0h57v57H0z"/><path fill="#FFF" d="M40.72 18.627C38.382 18 29 18 29 18s-9.381 0-11.72.627a3.757 3.757 0 0 0-2.653 2.652C14 23.62 14 28.5 14 28.5s0 4.881.627 7.221a3.758 3.758 0 0 0 2.652 2.652C19.62 39 29 39 29 39s9.381 0 11.72-.627a3.757 3.757 0 0 0 2.653-2.652C44 33.381 44 28.5 44 28.5s0-4.881-.627-7.22a3.757 3.757 0 0 0-2.652-2.653z"/><path fill="#F00" d="M25.932 32.932l7.84-4.432-7.84-4.432v8.864"/></g></svg>