<?xml version="1.0" encoding="UTF-8"?>
<svg width="7px" height="4px" viewBox="0 0 7 4" version="1.1" xmlns="http://www.w3.org/2000/svg" xmlns:xlink="http://www.w3.org/1999/xlink">
    <!-- Generator: Sketch 49 (51002) - http://www.bohemiancoding.com/sketch -->
    <title>Уголок Copy 3</title>
    <desc>Created with Sketch.</desc>
    <defs></defs>
    <g id="Прототип" stroke="none" stroke-width="1" fill="none" fill-rule="evenodd">
        <g id="Промо-страница---Не-авторизован" transform="translate(-585.000000, -100.000000)" fill="#AE91A0">
            <g id="GUI-/-Кнопки-/-Прямые-/-Заливка-/-Кнопка-L-" transform="translate(455.000000, 78.000000)">
                <g id="Group-15" transform="translate(130.000000, 22.000000)">
                    <path d="M3.50056555,2.2118822 L5.5227397,0.132513809 C5.52548396,0.129691934 5.52826775,0.126908776 5.53109026,0.124165161 C5.69741838,-0.0375141887 5.96332098,-0.0337456107 6.12500033,0.132582516 L6.39951263,0.414987888 C6.55798697,0.578018848 6.55795736,0.837554516 6.39944583,1.00054931 L4.36099846,3.09665119 L4.38265677,3.11892208 L3.52242026,4.00389302 L3.50056555,3.98142019 L3.47757974,4.00505612 L2.61734323,3.12008518 L2.64013265,3.09665119 L0.600554169,0.999386215 C0.442042639,0.836391418 0.44201303,0.576855749 0.600487368,0.413824789 L0.87499967,0.131419417 C1.03667902,-0.0349087094 1.30258162,-0.0386772874 1.46890974,0.123002063 C1.47173225,0.125745677 1.47451604,0.128528835 1.4772603,0.131350711 L3.50056555,2.2118822 Z" id="Уголок-Copy-3"></path>
                </g>
            </g>
        </g>
    </g>
</svg>