<svg xmlns="http://www.w3.org/2000/svg" width="57" height="57" viewBox="0 0 57 57"><defs><radialGradient id="a" cx="14.931%" cy="100.347%" r="127.775%" fx="14.931%" fy="100.347%"><stop offset="0%" stop-color="#FFB140"/><stop offset="25.59%" stop-color="#FF5445"/><stop offset="59.9%" stop-color="#FC2B82"/><stop offset="100%" stop-color="#8E40B7"/></radialGradient></defs><g fill="none" fill-rule="evenodd"><path fill="url(#a)" d="M0 0h57v57H0z"/><path fill="#FFF" d="M36.714 23.024a1.643 1.643 0 1 1-3.285 0 1.643 1.643 0 0 1 3.285 0zm-8.214 9.31a3.833 3.833 0 1 1 0-7.667 3.833 3.833 0 0 1 0 7.666zm0-9.858a6.024 6.024 0 1 0 0 12.048 6.024 6.024 0 0 0 0-12.048zm0-3.286c3.032 0 3.391.012 4.589.067 1.107.05 1.708.235 2.108.39.53.207.908.453 1.306.85.397.397.643.776.85 1.306.155.4.34 1.001.39 2.108.055 1.198.067 1.557.067 4.59 0 3.031-.012 3.39-.067 4.588-.05 1.107-.235 1.708-.39 2.108-.207.53-.453.908-.85 1.306a3.516 3.516 0 0 1-1.306.85c-.4.155-1.001.34-2.108.39-1.198.055-1.557.067-4.589.067-3.032 0-3.391-.012-4.589-.067-1.107-.05-1.708-.235-2.108-.39a3.519 3.519 0 0 1-1.306-.85 3.518 3.518 0 0 1-.85-1.306c-.155-.4-.34-1.001-.39-2.108-.055-1.198-.067-1.557-.067-4.589 0-3.032.012-3.391.067-4.589.05-1.107.235-1.708.39-2.108.207-.53.453-.908.85-1.306a3.516 3.516 0 0 1 1.306-.85c.4-.155 1.001-.34 2.108-.39 1.198-.055 1.557-.067 4.59-.067zm0-2.19c-3.123 0-3.515.013-4.741.07-1.224.055-2.06.25-2.792.534a5.635 5.635 0 0 0-2.037 1.326 5.635 5.635 0 0 0-1.326 2.037c-.285.732-.479 1.568-.535 2.792C17.013 24.985 17 25.377 17 28.5c0 3.123.013 3.515.07 4.741.055 1.224.25 2.06.534 2.792a5.635 5.635 0 0 0 1.326 2.037c.64.64 1.28 1.032 2.037 1.326.732.285 1.568.479 2.792.535 1.226.056 1.618.069 4.741.069 3.123 0 3.515-.013 4.741-.07 1.224-.055 2.06-.25 2.792-.534a5.638 5.638 0 0 0 2.037-1.326 5.638 5.638 0 0 0 1.326-2.037c.285-.732.479-1.568.535-2.792.056-1.226.069-1.618.069-4.741 0-3.123-.013-3.515-.07-4.741-.055-1.224-.25-2.06-.534-2.792a5.638 5.638 0 0 0-1.326-2.037 5.638 5.638 0 0 0-2.037-1.326c-.732-.285-1.568-.479-2.792-.535C32.015 17.013 31.623 17 28.5 17z"/></g></svg>