<svg width="14" height="14" viewBox="0 0 14 14" version="1.1" xmlns="http://www.w3.org/2000/svg" xmlns:xlink="http://www.w3.org/1999/xlink">
<title>download (1)</title>
<desc>Created using Figma</desc>
<g id="Canvas" transform="translate(-4744 -73)">
<g id="download (1)">
<g id="Shape">
<use xlink:href="#path0_fill" transform="translate(4745 73)" fill="#31A6EA"/>
</g>
<g id="Shape">
<use xlink:href="#path1_fill" transform="translate(4744 73)" fill="#31A6EA"/>
</g>
</g>
</g>
<defs>
<path id="path0_fill" d="M 3.18249 7.96063L 0 7.96063L 5.30415 13.236L 10.6083 7.96063L 7.42581 7.96063C 7.42581 7.96063 6.29208 3.27591 11.6691 0.0759891C 11.6691 0.0759891 7.56528 -0.721747 4.59147 2.85222C 4.59121 2.85195 3.07736 4.4712 3.18249 7.96063Z"/>
<path id="path1_fill" fill-rule="evenodd" d="M 0 7.96072L 5.94434 13.8729L 11.8887 7.96072L 8.28467 7.96072C 8.14014 7.04306 7.87012 3.28947 12.4443 0.567398L 13.0396 0.213173L 12.3599 0.0810928C 12.3428 0.0776596 11.936 0 11.29 0C 9.86768 0 7.16211 0.383018 5.03857 2.93604C 4.97559 3.0034 3.5293 4.59042 3.55371 7.96072L 0 7.96072ZM 5.94482 13.128L 1.28076 8.48901L 4.09473 8.48901L 4.08691 8.21694C 3.98682 4.89365 5.41064 3.31166 5.43457 3.28524C 7.55078 0.741997 10.2549 0.492371 11.5186 0.531998C 6.78418 3.77471 7.79834 8.24019 7.80957 8.28694L 7.8584 8.48901L 10.6084 8.48901L 5.94482 13.128Z"/>
</defs>
</svg>
