<svg xmlns="http://www.w3.org/2000/svg" width="57" height="57" viewBox="0 0 57 57"><g fill="none" fill-rule="evenodd"><path fill="#F68634" d="M0 0h57v57H0z"/><path fill="#FFF" d="M34.718 29.71c-.5-.9-1.5-1.1-2.5-.6-.5.2-1 .5-1.5.7-2.1.7-4.1.3-6.1-.7-.9-.5-2-.1-2.4.6-.5.8-.1 1.9.8 2.4s1.8.8 2.7 1.3l-.9.9c-.6.6-1.3 1.2-1.9 1.8-.6.6-.7 1.3-.3 2.1.4.7 1.1 1 1.9.8.5-.1 1-.4 1.4-.8.8-.8 1.6-1.7 2.6-2.7 1.1 1.1 1.9 2.1 2.8 2.9.9.9 2 .9 2.8.1.7-.7.6-1.8-.3-2.6-.9-.8-1.7-1.6-2.6-2.5 1-.4 1.9-.7 2.7-1.2 1-.6 1.3-1.6.8-2.5zm-6.4-.8c3.3 0 5.9-2.4 5.9-5.4 0-3.1-2.5-5.5-5.7-5.5-3.2-.2-6 2.5-5.9 5.5 0 3 2.6 5.4 5.7 5.4zm.1-7.5c1.1 0 2.2 1 2.1 2.1 0 1.1-1 2-2.2 2-1.2 0-2.1-1-2.1-2.1 0-1 1.1-2 2.2-2z"/></g></svg>