<svg xmlns="http://www.w3.org/2000/svg" width="57" height="57" viewBox="0 0 57 57"><g fill="none" fill-rule="evenodd"><path fill="#5B7FA6" d="M0 0h57v57H0z"/><path fill="#FFF" d="M23.003 21.095c.207-.21.31-.422.62-.527.31-.21.722-.316 1.135-.421 1.548-.21 3.199-.21 4.747.105.722.105 1.032.421 1.135 1.159.103.526 0 1.053 0 1.58v4.002c0 .316.103.527.207.843.206.527.619.632 1.032.21.516-.42.928-.947 1.238-1.369 1.135-1.58 1.96-3.16 2.683-4.95.31-.738.413-.843 1.239-.843h4.85c1.032 0 1.342.527.929 1.37a18.48 18.48 0 0 1-1.858 3.054c-.722 1.053-1.651 2.107-2.373 3.265-.104.106-.207.316-.31.422-.31.526-.31 1.053.103 1.474.413.527.929.948 1.445 1.475.826.843 1.651 1.685 2.477 2.633.31.316.413.632.619 1.054.206.526 0 .948-.516 1.158-.413.106-.929.211-1.342.211h-3.612c-.825 0-1.548-.421-2.167-.948-.722-.632-1.238-1.37-1.96-2.001l-.723-.738c-.62-.421-1.238-.316-1.548.316-.206.527-.31 1.264-.516 1.791v.105c0 1.054-.31 1.37-1.445 1.37-1.238 0-2.477 0-3.715-.316-2.27-.632-4.128-1.896-5.676-3.687-2.064-2.317-3.612-5.056-5.057-7.795a38.807 38.807 0 0 1-1.445-2.949c-.412-.948-.206-1.264.826-1.264h3.818c.826 0 1.239.21 1.548.948.93 2.001 1.961 4.003 3.303 5.793.206.211.413.422.722.632.413.316.826.211 1.032-.316.207-.526.31-.948.31-1.474 0-1.159 0-2.318-.103-3.476-.104-.843-.62-1.475-1.548-1.58H22.9c.103-.21.103-.21.103-.316z"/></g></svg>